<?xml version="1.0" encoding="UTF-8" standalone="no"?>
<!-- Created with Inkscape (http://www.inkscape.org/) -->

<svg
   version="1.1"
   id="svg55"
   width="694"
   height="653"
   viewBox="0 0 694 653"
   sodipodi:docname="logo.svg"
   inkscape:version="1.1.2 (0a00cf5339, 2022-02-04)"
   xmlns:inkscape="http://www.inkscape.org/namespaces/inkscape"
   xmlns:sodipodi="http://sodipodi.sourceforge.net/DTD/sodipodi-0.dtd"
   xmlns="http://www.w3.org/2000/svg"
   xmlns:svg="http://www.w3.org/2000/svg">
  <defs
     id="defs59" />
  <sodipodi:namedview
     id="namedview57"
     pagecolor="#ffffff"
     bordercolor="#666666"
     borderopacity="1.0"
     inkscape:pageshadow="2"
     inkscape:pageopacity="0.0"
     inkscape:pagecheckerboard="0"
     showgrid="false"
     inkscape:zoom="1.1531394"
     inkscape:cx="347.31275"
     inkscape:cy="257.12417"
     inkscape:window-width="1680"
     inkscape:window-height="999"
     inkscape:window-x="0"
     inkscape:window-y="0"
     inkscape:window-maximized="1"
     inkscape:current-layer="g61"
     inkscape:snap-global="false" />
  <g
     inkscape:groupmode="layer"
     inkscape:label="Image"
     id="g61">
    <g
       id="g313"
       transform="translate(8.6875656,41.523847)">
      <path
         style="fill:#c2b7c4"
         d="m 105,542.18699 c -3.48591,-1.32018 -4.95071,-2.6037 -6.5,-5.69561 -1.973157,-3.93781 -2.002505,-6.17989 -2.186651,-167.05196 -0.142113,-124.15243 0.0965,-163.61258 1,-165.37397 C 97.984476,202.75709 142.59529,171.38632 200,131.85518 255.825,93.4119 307.04442,58.096327 313.82093,53.376134 c 8.74384,-6.090539 12.95357,-8.452667 14.5,-8.136108 1.19849,0.245334 23.55407,15.199126 49.67907,33.230648 26.125,18.031523 65.5,45.182156 87.5,60.334736 22,15.15258 49.225,33.91852 60.5,41.70208 11.275,7.78357 23.3125,16.04534 26.75,18.35949 l 6.25,4.20754 v 164.17931 c 0,186.20961 0.70456,170.90622 -8.04167,174.66875 -4.21937,1.81513 -6.84694,2.07742 -20.81081,2.07742 -19.67556,0 -24.02868,-1.31908 -27.16637,-8.23196 -1.8882,-4.16002 -1.93781,-8.03899 -1.96018,-153.26804 l -0.023,-149 -85.67716,-59 C 368.19841,142.05 328.70776,115.50928 327.56386,115.52063 325.96507,115.53648 196.95894,203.43875 161,229.01399 l -6.5,4.62302 -0.5,150.4315 c -0.5652,170.04858 0.25762,155.01008 -8.65606,158.20511 -6.86434,2.46047 -33.77095,2.4027 -40.34394,-0.0866 z m 125.6563,-55.31952 c -1.01403,-0.58945 -2.47988,-2.59433 -3.25744,-4.45529 -1.59878,-3.82641 -0.69571,-9.85501 2.437,-16.26863 C 230.81469,464.1396 245.80135,439.775 263.13956,412 334.51051,297.66707 351,271.12494 351,270.57635 351,270.25936 334.1801,270 313.62244,270 c -29.18763,0 -37.61077,0.28102 -38.44195,1.28252 -0.58542,0.70539 -4.04221,11.84289 -7.68174,24.75 -3.63954,12.90712 -7.30066,24.51757 -8.13583,25.80101 -2.58766,3.97657 -7.62659,5.40611 -16.21799,4.60103 -6.43983,-0.60346 -7.99105,-1.12684 -10.35944,-3.49523 -3.33514,-3.33514 -3.35406,-3.80957 -1.67253,-41.93933 1.16613,-26.44254 1.78187,-29.80298 5.86087,-31.98599 1.32791,-0.71068 30.96289,-0.96025 92.57819,-0.77965 l 90.62506,0.26564 1.91146,2.36078 c 2.46622,3.04596 2.49653,9.60238 0.0734,15.87849 -1.01093,2.6184 -25.15698,43.01073 -53.65789,89.76073 -28.5009,46.75 -55.08858,90.4 -59.08373,97 l -7.2639,12 40.11028,0.26151 c 22.06066,0.14383 40.4839,-0.11211 40.94054,-0.56875 0.45664,-0.45664 4.01077,-12.49931 7.89806,-26.7615 7.72569,-28.34492 9.25487,-31.60405 15.66375,-33.38394 4.96698,-1.37944 11.59293,-1.31876 16.49886,0.15109 6.90781,2.06963 6.97365,2.63385 4.78043,40.96638 -1.04901,18.33437 -2.36062,34.5273 -2.9147,35.9843 -2.35772,6.19988 3.53383,5.85387 -99.10615,5.8205 -64.65806,-0.021 -94.09659,-0.36122 -95.37119,-1.10212 z"
         id="path327" />
      <path
         style="fill:#b5c2b5"
         d="m 105,542.18699 c -3.48591,-1.32018 -4.95071,-2.6037 -6.5,-5.69561 -1.973157,-3.93781 -2.002505,-6.17989 -2.186651,-167.05196 -0.142113,-124.15243 0.0965,-163.61258 1,-165.37397 C 97.984476,202.75709 142.59529,171.38632 200,131.85518 255.825,93.4119 307.04442,58.096327 313.82093,53.376134 c 8.74384,-6.090539 12.95357,-8.452667 14.5,-8.136108 1.19849,0.245334 23.55407,15.199126 49.67907,33.230648 26.125,18.031523 65.5,45.182156 87.5,60.334736 22,15.15258 49.225,33.91852 60.5,41.70208 11.275,7.78357 23.3125,16.04534 26.75,18.35949 l 6.25,4.20754 v 164.17931 c 0,186.20961 0.70456,170.90622 -8.04167,174.66875 -4.21937,1.81513 -6.84694,2.07742 -20.81081,2.07742 -19.67556,0 -24.02868,-1.31908 -27.16637,-8.23196 -1.8882,-4.16002 -1.93781,-8.03899 -1.96018,-153.26804 l -0.023,-149 -85.67716,-59 C 368.19841,142.05 328.70776,115.50928 327.56386,115.52063 325.96507,115.53648 196.95894,203.43875 161,229.01399 l -6.5,4.62302 -0.5,150.4315 c -0.5652,170.04858 0.25762,155.01008 -8.65606,158.20511 -6.86434,2.46047 -33.77095,2.4027 -40.34394,-0.0866 z m 127.32118,-56.37572 c -5.20721,-2.51748 -5.41659,-11.42965 -0.47719,-20.31127 1.52937,-2.75 28.89038,-46.85 60.80223,-98 31.91186,-51.15 58.53047,-93.95333 59.15248,-95.11852 0.62201,-1.16518 0.84677,-2.40268 0.49945,-2.75 C 351.95083,269.28417 334.42704,269 313.35639,269 h -38.31028 l -1.45382,2.25 c -0.79959,1.2375 -4.21298,12.11401 -7.58529,24.17001 -6.81465,24.36238 -7.98293,27.24014 -11.62,28.62295 -3.70159,1.40735 -13.95416,1.16473 -17.74685,-0.41995 -5.63667,-2.35516 -5.79042,-3.69346 -4.26488,-37.12301 1.43694,-31.48802 1.94174,-34.41215 6.28205,-36.38973 3.48332,-1.5871 176.24307,-1.56841 179.72804,0.0194 5.20965,2.37368 5.63352,9.79507 1.07882,18.88864 -1.24471,2.48509 -28.42223,47.47182 -60.3945,99.9705 -31.97227,52.49868 -57.99895,96.14042 -57.83706,96.98164 0.25705,1.33575 5.23291,1.56475 39.28086,1.8078 21.44259,0.15307 40.02867,0.0246 41.30242,-0.28559 3.06722,-0.74683 3.83472,-2.80388 11.19048,-29.99271 3.42237,-12.65 6.85362,-24.22988 7.62498,-25.73307 2.14638,-4.18271 6.22975,-5.76693 14.86443,-5.76693 6.73062,0 7.8745,0.27938 10.04966,2.45455 1.98784,1.98783 2.45465,3.46142 2.45508,7.75 10e-4,11.71535 -3.08452,60.54007 -4.04727,64.03963 -1.96655,7.14829 3.67865,6.76363 -98.1536,6.68814 -61.77009,-0.0458 -92.00437,-0.40838 -93.47848,-1.12105 z"
         id="path325" />
      <path
         style="fill:#9eb09e"
         d="m 104.47964,541.12974 c -7.551048,-3.43022 -6.950221,10.81385 -7.241306,-171.67266 -0.208677,-130.82368 -0.0062,-164.37835 1,-165.69936 C 100.34751,200.98858 326.01622,46 327.93901,46 c 0.9852,0 2.86446,0.828477 4.17613,1.84106 1.31167,1.012583 16.10986,11.280553 32.88486,22.81771 118.76998,81.68512 183.2394,126.15466 187.75,129.50568 l 5.25,3.90034 v 163.99972 c 0,183.47335 0.58666,169.40589 -7.21236,172.94557 -3.67573,1.66827 -6.60387,1.94913 -20.5174,1.96796 -19.76102,0.0267 -23.47357,-1.01297 -26.36706,-7.38415 -1.78541,-3.93129 -1.86013,-10.01815 -1.88122,-153.25169 L 502,233.18441 415.52922,173.5922 C 367.9703,140.81649 328.42632,114 327.65371,114 c -1.48419,0 -172.62867,117.51704 -173.8884,119.40116 -0.40408,0.60436 -0.74326,68.37384 -0.75374,150.59884 -0.0187,146.85077 -0.0539,149.55713 -1.98466,152.72377 -3.26721,5.35851 -7.0795,6.27912 -25.89903,6.25427 -13.93465,-0.0184 -17.27906,-0.31778 -20.64824,-1.8483 z m 127.84154,-55.31847 c -5.20721,-2.51748 -5.41659,-11.42965 -0.47719,-20.31127 1.52937,-2.75 28.89038,-46.85 60.80223,-98 31.91186,-51.15 58.53047,-93.95333 59.15248,-95.11852 0.62201,-1.16518 0.84677,-2.40268 0.49945,-2.75 C 351.95083,269.28417 334.42704,269 313.35639,269 h -38.31028 l -1.45382,2.25 c -0.79959,1.2375 -4.21298,12.11401 -7.58529,24.17001 -6.81465,24.36238 -7.98293,27.24014 -11.62,28.62295 -3.70159,1.40735 -13.95416,1.16473 -17.74685,-0.41995 -5.63667,-2.35516 -5.79042,-3.69346 -4.26488,-37.12301 1.43694,-31.48802 1.94174,-34.41215 6.28205,-36.38973 3.48332,-1.5871 176.24307,-1.56841 179.72804,0.0194 5.20965,2.37368 5.63352,9.79507 1.07882,18.88864 -1.24471,2.48509 -28.42223,47.47182 -60.3945,99.9705 -31.97227,52.49868 -57.99895,96.14042 -57.83706,96.98164 0.25705,1.33575 5.23291,1.56475 39.28086,1.8078 21.44259,0.15307 40.02867,0.0246 41.30242,-0.28559 3.06722,-0.74683 3.83472,-2.80388 11.19048,-29.99271 3.42237,-12.65 6.85362,-24.22988 7.62498,-25.73307 2.14638,-4.18271 6.22975,-5.76693 14.86443,-5.76693 6.73062,0 7.8745,0.27938 10.04966,2.45455 1.98784,1.98783 2.45465,3.46142 2.45508,7.75 10e-4,11.71535 -3.08452,60.54007 -4.04727,64.03963 -1.96655,7.14829 3.67865,6.76363 -98.1536,6.68814 -61.77009,-0.0458 -92.00437,-0.40838 -93.47848,-1.12105 z"
         id="path323" />
      <path
         style="fill:#b15fb3"
         d="m 105.32548,540.54087 c -1.74599,-0.75947 -3.99599,-2.63449 -5,-4.16672 -1.746039,-2.66463 -1.835987,-9.92472 -2.06693,-166.83001 -0.132797,-90.22428 0.0922,-164.53427 0.5,-165.13331 C 99.166348,203.81179 116.375,191.70384 137,177.50428 195.63162,137.13855 281.36173,78.052012 304.89685,61.787138 316.66511,53.654212 326.90903,47 327.66111,47 c 0.75208,0 52.5485,35.271702 115.10315,78.38156 L 556.5,203.76312 l 0.29147,163.36844 c 0.20885,117.06143 -0.0217,164.45327 -0.81328,167.19566 -0.89011,3.08365 -1.91816,4.19652 -5.29147,5.72804 -3.5551,1.61405 -6.6352,1.90413 -20.41648,1.92278 -12.48845,0.0169 -17.13864,-0.3417 -20.17245,-1.55559 C 502.47583,537.37275 503,549.06219 503,382.13475 503,241.64282 502.90202,233.22483 501.25,231.78936 496.11388,227.32645 328.96824,113 327.57959,113 325.76096,113 156.5497,229.07332 153.75,232.24134 c -1.64995,1.86701 -1.75,10.48412 -1.75,150.72022 0,106.43724 -0.3158,149.64589 -1.11037,151.9252 -0.7382,2.11762 -2.40071,3.84349 -4.96016,5.14922 -3.38482,1.72681 -5.87764,1.95929 -20.63963,1.92488 -12.00656,-0.028 -17.69423,-0.43254 -19.96436,-1.41999 z m 126.9957,-54.7296 c -5.20721,-2.51748 -5.41659,-11.42965 -0.47719,-20.31127 1.52937,-2.75 28.89038,-46.85 60.80223,-98 31.91186,-51.15 58.53047,-93.95333 59.15248,-95.11852 0.62201,-1.16518 0.84677,-2.40268 0.49945,-2.75 C 351.95083,269.28417 334.42704,269 313.35639,269 h -38.31028 l -1.45382,2.25 c -0.79959,1.2375 -4.21298,12.11401 -7.58529,24.17001 -6.81465,24.36238 -7.98293,27.24014 -11.62,28.62295 -3.70159,1.40735 -13.95416,1.16473 -17.74685,-0.41995 -5.63667,-2.35516 -5.79042,-3.69346 -4.26488,-37.12301 1.43694,-31.48802 1.94174,-34.41215 6.28205,-36.38973 3.48332,-1.5871 176.24307,-1.56841 179.72804,0.0194 5.20965,2.37368 5.63352,9.79507 1.07882,18.88864 -1.24471,2.48509 -28.42223,47.47182 -60.3945,99.9705 -31.97227,52.49868 -57.99895,96.14042 -57.83706,96.98164 0.25705,1.33575 5.23291,1.56475 39.28086,1.8078 21.44259,0.15307 40.02867,0.0246 41.30242,-0.28559 3.06722,-0.74683 3.83472,-2.80388 11.19048,-29.99271 3.42237,-12.65 6.85362,-24.22988 7.62498,-25.73307 2.14638,-4.18271 6.22975,-5.76693 14.86443,-5.76693 6.73062,0 7.8745,0.27938 10.04966,2.45455 1.98784,1.98783 2.45465,3.46142 2.45508,7.75 10e-4,11.71535 -3.08452,60.54007 -4.04727,64.03963 -1.96655,7.14829 3.67865,6.76363 -98.1536,6.68814 -61.77009,-0.0458 -92.00437,-0.40838 -93.47848,-1.12105 z"
         id="path321" />
      <path
         style="fill:#a826ab"
         d="m 105.32548,540.54087 c -1.74599,-0.75947 -3.99599,-2.63449 -5,-4.16672 -1.746039,-2.66463 -1.835987,-9.92472 -2.06693,-166.83001 -0.132797,-90.22428 0.0922,-164.53427 0.5,-165.13331 C 99.166348,203.81179 116.375,191.70384 137,177.50428 195.63162,137.13855 281.36173,78.052012 304.89685,61.787138 316.66511,53.654212 326.90903,47 327.66111,47 c 0.75208,0 52.5485,35.271702 115.10315,78.38156 L 556.5,203.76312 l 0.29147,163.36844 c 0.20885,117.06143 -0.0217,164.45327 -0.81328,167.19566 -0.89011,3.08365 -1.91816,4.19652 -5.29147,5.72804 -3.5551,1.61405 -6.6352,1.90413 -20.41648,1.92278 -12.48845,0.0169 -17.13864,-0.3417 -20.17245,-1.55559 C 502.47583,537.37275 503,549.06219 503,382.13475 503,241.64282 502.90202,233.22483 501.25,231.78936 496.11388,227.32645 328.96824,113 327.57959,113 325.76096,113 156.5497,229.07332 153.75,232.24134 c -1.64995,1.86701 -1.75,10.48412 -1.75,150.72022 0,106.43724 -0.3158,149.64589 -1.11037,151.9252 -0.7382,2.11762 -2.40071,3.84349 -4.96016,5.14922 -3.38482,1.72681 -5.87764,1.95929 -20.63963,1.92488 -12.00656,-0.028 -17.69423,-0.43254 -19.96436,-1.41999 z m 126.32951,-57.36961 c -1.92773,-2.13012 -2.14438,-7.43052 -0.5016,-12.27204 0.63436,-1.86957 28.56627,-47.38212 62.07089,-101.13899 42.64279,-68.4187 60.82124,-98.41782 60.59661,-100 L 353.5,267.5 314.2616,267.2384 c -36.95035,-0.24634 -39.34559,-0.15441 -41.0765,1.5765 -1.12095,1.12095 -4.48195,11.23928 -8.61446,25.93392 -8.18025,29.08785 -8.03922,28.87899 -19.23935,28.49268 -8.57819,-0.29589 -11.05313,-1.28504 -11.92701,-4.76684 -0.34063,-1.35719 -0.12094,-13.42655 0.4882,-26.8208 C 234.50161,278.25962 235,264.73758 235,261.60489 c 0,-4.71406 0.42307,-6.11887 2.45455,-8.15034 L 239.90909,251 h 88.32295 C 426.30581,251 421,250.63218 421,257.43098 c 0,1.82466 -0.66645,5.20648 -1.48099,7.51515 -0.81455,2.30867 -28.12103,47.92775 -60.68107,101.37573 -32.56004,53.44798 -59.39448,98.18243 -59.6321,99.40989 -0.78478,4.05404 2.49003,4.35271 44.41884,4.05111 37.79182,-0.27186 39.39914,-0.36067 41.31365,-2.28286 1.34078,-1.34616 4.36533,-10.61323 9.25164,-28.34654 5.04176,-18.2975 7.91517,-27.05388 9.40541,-28.66187 4.34429,-4.68758 19.80241,-4.30144 22.0363,0.55046 1.37503,2.98647 -1.94312,65.85004 -3.70078,70.11273 -0.60206,1.46013 -2.07031,2.91649 -3.26278,3.23635 -1.19247,0.31986 -43.38588,0.58771 -93.76313,0.59522 -87.47542,0.013 -91.66945,-0.0686 -93.25,-1.81509 z"
         id="path319" />
      <path
         style="fill:#5cb05a"
         d="m 105.32548,540.54087 c -1.74599,-0.75947 -3.99599,-2.63449 -5,-4.16672 -1.746039,-2.66463 -1.835987,-9.92472 -2.06693,-166.83001 -0.132797,-90.22428 0.0922,-164.53427 0.5,-165.13331 C 99.166348,203.81179 116.375,191.70384 137,177.50428 195.63162,137.13855 281.36173,78.052012 304.89685,61.787138 316.66511,53.654212 326.90903,47 327.66111,47 c 0.75208,0 52.5485,35.271702 115.10315,78.38156 L 556.5,203.76312 l 0.29147,163.36844 c 0.20885,117.06143 -0.0217,164.45327 -0.81328,167.19566 -0.89011,3.08365 -1.91816,4.19652 -5.29147,5.72804 -3.5551,1.61405 -6.6352,1.90413 -20.41648,1.92278 -12.48845,0.0169 -17.13864,-0.3417 -20.17245,-1.55559 C 502.47583,537.37275 503,549.06219 503,382.13475 503,241.64282 502.90202,233.22483 501.25,231.78936 496.11388,227.32645 328.96824,113 327.57959,113 325.76096,113 156.5497,229.07332 153.75,232.24134 c -1.64995,1.86701 -1.75,10.48412 -1.75,150.72022 0,106.43724 -0.3158,149.64589 -1.11037,151.9252 -0.7382,2.11762 -2.40071,3.84349 -4.96016,5.14922 -3.38482,1.72681 -5.87764,1.95929 -20.63963,1.92488 -12.00656,-0.028 -17.69423,-0.43254 -19.96436,-1.41999 z"
         id="path317" />
      <path
         style="fill:#2ba926"
         d="m 105.01971,538.71555 c -1.36416,-0.69023 -3.04503,-2.3711 -3.73526,-3.73526 -0.99155,-1.95967 -1.25313,-36.90437 -1.24619,-166.48029 l 0.009,-164 109.5935,-75.5 C 269.91732,87.475 321.17718,52.228473 323.55157,50.674385 l 4.31707,-2.825615 113.81568,78.4426 113.81568,78.44259 0.28836,162.38302 c 0.22335,125.76967 0.013,163.24407 -0.93277,166.20186 C 552.91083,539.40061 550.74364,540 530.69888,540 511.88745,540 507.89154,539.25213 506.13784,535.40317 505.30361,533.57224 505,493.04217 505,383.50871 V 234.11153 l -2.25,-2.45985 C 500.12949,228.78677 330.60541,111.96809 328.14977,111.33504 327.14904,111.07706 292.07653,134.63774 239,171.22324 l -87.5,60.3135 -0.5,150.98163 c -0.275,83.0399 -0.89203,151.78577 -1.37118,152.76862 -1.9476,3.99494 -5.66966,4.71372 -24.32916,4.69827 -12.26644,-0.0102 -18.57069,-0.40486 -20.27995,-1.26971 z"
         id="path315" />
    </g>
  </g>
</svg>
